<?xml version="1.0" encoding="UTF-8"?>
<svg width="50px" height="45px" viewBox="0 0 50 45" version="1.1" xmlns="http://www.w3.org/2000/svg" xmlns:xlink="http://www.w3.org/1999/xlink">
    <!-- Generator: Sketch 62 (91390) - https://sketch.com -->
    <title>LogoComp</title>
    <desc>Created with Sketch.</desc>
    <g id="Page-1" stroke="none" stroke-width="1" fill="none" fill-rule="evenodd">
        <g id="Home-Aaron-V.2" transform="translate(-522.000000, -43.000000)" fill="#FFFFFF">
            <g id="Logo" transform="translate(522.000000, 43.000000)">
                <g id="LogoComp">
                    <text id="傲慢-作家" font-family="PingFangSC-Medium, PingFang SC" font-size="11" font-weight="400" letter-spacing="0.916666667">
                        <tspan x="0" y="43">傲慢</tspan>
                        <tspan x="23.8333333" y="43" font-family="Swiss721BT-Medium, Swis721 Md BT"> </tspan>
                        <tspan x="27.8061523" y="43">作家</tspan>
                    </text>
                    <g id="Icon-Logo" transform="translate(8.000000, -0.000000)">
                        <path d="M11.834643,1.94605514 C12.0204705,3.36255703 11.6488156,5.84842234 11.3684389,6.91436766 C11.0880622,7.98031297 10.4478876,10.5515303 10.2802544,11.3507631 C10.1126213,12.1499959 9.83418667,13.1455685 9.83418667,13.5009506 L9.83418667,14.0319629 L9.83418667,14.0319629 C11.1369552,13.0507664 11.8861255,12.5601682 12.0816975,12.5601682 C12.3750555,12.5601682 13.2132213,13.1064614 12.8718221,13.5009506 C12.5304229,13.8954399 11.605374,14.5260787 10.9428142,14.8176238 C10.2802544,15.1091689 9.63588892,15.4025215 9.43932882,15.6589797 C9.24276873,15.9154379 9.1335346,18.6425811 9.43932882,21.3265958 C9.74512304,24.0106105 10.5171896,25.5108559 10.9428142,25.9523943 C11.3684389,26.3939327 11.8466363,26.6772331 12.1891258,26.6772331 C12.5316154,26.6772331 14.1094795,25.9371804 14.4741838,24.9268295 C14.8388881,23.9164786 14.8111537,23.3404613 15.1421269,23.3404613 C15.4731002,23.3404613 15.6798137,23.5444751 15.351464,24.5521787 C15.0231142,25.5598822 14.2399744,27.143536 13.0373087,27.5364167 C11.834643,27.9292975 10.0435578,27.6556482 9.1335346,25.9971647 C8.22351145,24.3386813 7.72619976,22.5229316 7.59464862,21.3265958 C7.47083579,20.2006326 7.50562531,18.4082862 7.51014662,17.6981794 L7.51059354,16.6853488 L7.51059354,16.6853488 L5.40550274,17.8905985 C3.74927355,25.1055427 2.84139692,28.8106317 2.68187285,29.0058657 C2.44258674,29.2987167 2.49042352,29.4942857 2.04394693,29.3366174 C1.59747033,29.178949 1.60973617,28.4243191 1.82684155,25.3962489 C1.97157847,23.3775355 2.31706631,21.2482252 2.86330507,19.008318 C2.25171664,19.2642736 1.82977172,19.3922514 1.59747033,19.3922514 C1.24901825,19.3922514 0.330272719,19.5116169 0.101140004,19.008318 C-0.127992712,18.5050192 0.0595383612,18.3856537 0.390102763,18.3221842 C0.720667165,18.2587147 1.36809911,18.2188704 1.59747033,18.2188704 C1.82684155,18.2188704 3.03553792,17.7933166 3.17219982,17.4845815 C3.30886173,17.1758465 4.01608965,14.0281427 4.45111813,12.8051657 C4.88614661,11.5821887 6.13930665,8.10014763 6.381557,7.66966778 C6.62380735,7.23918793 8.18034251,3.96102657 8.97711107,2.91066377 C9.77387962,1.86030098 10.2900671,0.879104502 10.7464586,0.879104502 C11.20285,0.879104502 11.6488156,0.529553255 11.834643,1.94605514 Z M10.7762032,2.54774172 C9.48433764,5.45339692 8.54429725,7.7584044 7.95608206,9.46276413 C7.07375926,12.0193037 6.29549168,14.2650254 6.11538826,15.0932979 C5.99531931,15.6454796 5.93753357,16.0254874 5.94203104,16.2333215 L7.77464699,15.0932979 C8.2785705,12.7275594 8.62480887,11.1885038 8.8133621,10.476131 C9.09619193,9.40757183 9.75691188,6.86872593 9.95909382,6.30594541 C10.0938818,5.9307584 10.3662516,5.06323058 10.7762032,3.70336196 L10.7762032,2.54774172 Z" id="Combined-Shape"></path>
                        <path d="M29.2139534,1.32536549 C29.3997809,2.74186738 29.0281259,5.22773268 28.7477492,6.293678 C28.4673726,7.35962332 27.8271979,9.93084066 27.6595648,10.7300734 C27.4919316,11.5293062 27.213497,12.5248789 27.213497,12.880261 L27.213497,13.4112733 L27.213497,13.4112733 C28.5162656,12.4300768 29.2654358,11.9394785 29.4610079,11.9394785 C29.7543659,11.9394785 30.5925317,12.4857717 30.2511324,12.880261 C29.9097332,13.2747502 28.9846844,13.9053891 28.3221246,14.1969342 C27.6595648,14.4884793 27.0151993,14.7818318 26.8186392,15.03829 C26.6220791,15.2947483 26.5128449,18.0218914 26.8186392,20.7059061 C27.1244334,23.3899208 27.8964999,24.8901662 28.3221246,25.3317047 C28.7477492,25.7732431 29.2259467,26.0565434 29.5684362,26.0565434 C29.9109257,26.0565434 31.4887898,25.3164907 31.8534941,24.3061399 C32.2181985,23.295789 32.190464,22.7197717 32.5214373,22.7197717 C32.8524106,22.7197717 33.059124,22.9237855 32.7307743,23.931489 C32.4024246,24.9391925 31.6192847,26.5228464 30.4166191,26.9157271 C29.2139534,27.3086078 27.4228681,27.0349585 26.5128449,25.3764751 C25.6028218,23.7179917 25.1055101,21.902242 24.973959,20.7059061 C24.8501461,19.5799429 24.8849357,17.7875966 24.889457,17.0774897 L24.8899039,16.0646591 L24.8899039,16.0646591 L22.7848131,17.2699088 C21.1285839,24.484853 20.2207073,28.1899421 20.0611832,28.385176 C19.8218971,28.678027 19.8697339,28.8735961 19.4232573,28.7159277 C18.9767807,28.5582594 18.9890465,27.8036295 19.2061519,24.7755593 C19.3508888,22.7568458 19.6963767,20.6275355 20.2426154,18.3876284 C19.631027,18.6435839 19.2090821,18.7715617 18.9767807,18.7715617 C18.6283286,18.7715617 17.7095831,18.8909272 17.4804503,18.3876284 C17.2513176,17.8843295 17.4388487,17.764964 17.7694131,17.7014946 C18.0999775,17.6380251 18.7474095,17.5981807 18.9767807,17.5981807 C19.2061519,17.5981807 20.4148483,17.172627 20.5515102,16.8638919 C20.6881721,16.5551568 21.3954,13.407453 21.8304285,12.1844761 C22.265457,10.9614991 23.518617,7.47945797 23.7608673,7.04897812 C24.0031177,6.61849827 25.5596529,3.34033691 26.3564214,2.28997412 C27.15319,1.23961133 27.6693774,0.258414847 28.1257689,0.258414847 C28.5821604,0.258414847 29.0281259,-0.0911364 29.2139534,1.32536549 Z M28.1555136,1.92705206 C26.863648,4.83270727 25.9236076,7.13771474 25.3353924,8.84207448 C24.4530696,11.3986141 23.674802,13.6443358 23.4946986,14.4726083 C23.3746297,15.0247899 23.3168439,15.4047978 23.3213414,15.6126318 L25.1539573,14.4726083 C25.6578808,12.1068697 26.0041192,10.5678141 26.1926724,9.85544134 C26.4755023,8.78688218 27.1362222,6.24803628 27.3384042,5.68525576 C27.4731921,5.31006874 27.7455619,4.44254092 28.1555136,3.0826723 L28.1555136,1.92705206 Z" id="Combined-Shape-Copy"></path>
                        <path d="M35.3771636,25.6685206 C35.0548803,25.7027198 34.8619748,25.8293167 34.7984473,26.0483112 C34.7031561,26.3768029 34.793352,26.7031129 34.9165013,26.8163396 C35.0396507,26.9295664 35.4532678,26.9766696 35.6638235,26.742608 C35.8743792,26.5085465 36.1117704,26.3768029 35.9422769,26.0483112 C35.8292813,25.8293167 35.6409102,25.7027198 35.3771636,25.6685206 Z" id="Path-3"></path>
                    </g>
                </g>
            </g>
        </g>
    </g>
</svg>